<?xml version="1.0" standalone="no"?><!DOCTYPE svg PUBLIC "-//W3C//DTD SVG 1.1//EN" "http://www.w3.org/Graphics/SVG/1.1/DTD/svg11.dtd"><svg height="800" node-id="1" sillyvg="true" template-height="800" template-width="800" version="1.1" viewBox="0 0 800 800" width="800" xmlns="http://www.w3.org/2000/svg" xmlns:xlink="http://www.w3.org/1999/xlink"><defs node-id="179"><linearGradient gradientUnits="userSpaceOnUse" id="SVGID_1_" node-id="12" spreadMethod="pad" x1="399.2733" x2="399.2733" y1="159.3104" y2="714.802"><stop offset="0.00000009590021" stop-color="#f4f2fb"></stop><stop offset="1" stop-color="#e1eef5"></stop></linearGradient><linearGradient gradientUnits="userSpaceOnUse" id="SVGID_2_" node-id="16" spreadMethod="pad" x1="536.6601" x2="536.6601" y1="581.7109" y2="478.7841"><stop offset="0" stop-color="#cedcea"></stop><stop offset="1" stop-color="#eaf0f8"></stop></linearGradient><linearGradient gradientUnits="userSpaceOnUse" id="SVGID_3_" node-id="21" spreadMethod="pad" x1="114.3551" x2="114.3551" y1="540.6995" y2="403.525"><stop offset="0.2267" stop-color="#d0dceb"></stop><stop offset="0.7893" stop-color="#ecf1fb"></stop></linearGradient><linearGradient gradientUnits="userSpaceOnUse" id="SVGID_4_" node-id="26" spreadMethod="pad" x1="114.357" x2="114.357" y1="418.7567" y2="569.89"><stop offset="0" stop-color="#ecf1fb"></stop><stop offset="0.818" stop-color="#b6c9dd"></stop></linearGradient><linearGradient gradientUnits="userSpaceOnUse" id="SVGID_5_" node-id="31" spreadMethod="pad" x1="615.4839" x2="615.4839" y1="449.1776" y2="360.8531"><stop offset="0.2267" stop-color="#d0dceb"></stop><stop offset="0.7893" stop-color="#ecf1fb"></stop></linearGradient><linearGradient gradientUnits="userSpaceOnUse" id="SVGID_6_" node-id="36" spreadMethod="pad" x1="615.4851" x2="615.4851" y1="370.6605" y2="467.9728"><stop offset="0" stop-color="#ecf1fb"></stop><stop offset="0.818" stop-color="#b6c9dd"></stop></linearGradient><linearGradient gradientUnits="userSpaceOnUse" id="SVGID_7_" node-id="41" spreadMethod="pad" x1="672.1938" x2="672.1938" y1="544.7239" y2="510.393"><stop offset="0.2267" stop-color="#d0dceb"></stop><stop offset="0.7893" stop-color="#ecf1fb"></stop></linearGradient><linearGradient gradientUnits="userSpaceOnUse" id="SVGID_8_" node-id="45" spreadMethod="pad" x1="672.2544" x2="672.2544" y1="514.7277" y2="569.9913"><stop offset="0" stop-color="#ecf1fb"></stop><stop offset="0.818" stop-color="#b6c9dd"></stop></linearGradient><linearGradient gradientUnits="userSpaceOnUse" id="SVGID_9_" node-id="49" spreadMethod="pad" x1="461.402" x2="426.6477" y1="86.571" y2="146.7671"><stop offset="0" stop-color="#ffdb80"></stop><stop offset="1" stop-color="#ffbb24"></stop></linearGradient><linearGradient gradientUnits="userSpaceOnUse" id="SVGID_10_" node-id="53" spreadMethod="pad" x1="419.0648" x2="419.0648" y1="117.0371" y2="174.4911"><stop offset="0" stop-color="#f9fafe"></stop><stop offset="1" stop-color="#e5edf7"></stop></linearGradient><linearGradient gradientUnits="userSpaceOnUse" id="SVGID_11_" node-id="58" spreadMethod="pad" x1="545.9633" x2="398.9025" y1="528.3723" y2="528.3723"><stop offset="0.15" stop-color="#b6cadc"></stop><stop offset="1" stop-color="#dfe8f9"></stop></linearGradient><linearGradient gradientUnits="userSpaceOnUse" id="SVGID_12_" node-id="62" spreadMethod="pad" x1="484.4395" x2="448.6111" y1="501.2677" y2="439.2109"><stop offset="0.15" stop-color="#b6cadc"></stop><stop offset="1" stop-color="#dfe8f9"></stop></linearGradient><linearGradient gradientUnits="userSpaceOnUse" id="SVGID_13_" node-id="66" spreadMethod="pad" x1="457.1918" x2="341.8573" y1="476.0758" y2="360.7413"><stop offset="0.15" stop-color="#b6cadc"></stop><stop offset="1" stop-color="#dfe8f9"></stop></linearGradient><linearGradient gradientUnits="userSpaceOnUse" id="SVGID_14_" node-id="70" spreadMethod="pad" x1="566.1998" x2="378.4145" y1="582.8602" y2="582.8602"><stop offset="0.15" stop-color="#b6cadc"></stop><stop offset="1" stop-color="#dfe8f9"></stop></linearGradient><linearGradient gradientUnits="userSpaceOnUse" id="SVGID_15_" node-id="74" spreadMethod="pad" x1="457.9654" x2="241.2663" y1="259.8518" y2="476.551"><stop offset="0.15" stop-color="#b6cadc"></stop><stop offset="1" stop-color="#dfe8f9"></stop></linearGradient><linearGradient gradientUnits="userSpaceOnUse" id="SVGID_16_" node-id="78" spreadMethod="pad" x1="394.351" x2="304.8807" y1="394.0292" y2="342.3736"><stop offset="0.15" stop-color="#9fb6cc"></stop><stop offset="1" stop-color="#dae4f6"></stop></linearGradient><linearGradient gradientUnits="userSpaceOnUse" id="SVGID_17_" node-id="82" spreadMethod="pad" x1="309.9117" x2="394.5034" y1="373.3605" y2="373.3605"><stop offset="0.15" stop-color="#b6cadc"></stop><stop offset="1" stop-color="#dfe8f9"></stop></linearGradient><linearGradient gradientUnits="userSpaceOnUse" id="SVGID_18_" node-id="88" spreadMethod="pad" x1="281.6624" x2="281.6624" y1="293.4414" y2="335.6382"><stop offset="0.0746" stop-color="#c9d8e9"></stop><stop offset="1" stop-color="#e7eff7"></stop></linearGradient><linearGradient gradientUnits="userSpaceOnUse" id="SVGID_19_" node-id="93" spreadMethod="pad" x1="270.4285" x2="270.4285" y1="270.9739" y2="340.6494"><stop offset="0.0746" stop-color="#c9d8e9"></stop><stop offset="1" stop-color="#e7eff7"></stop></linearGradient><linearGradient gradientUnits="userSpaceOnUse" id="SVGID_20_" node-id="98" spreadMethod="pad" x1="257.1679" x2="257.1679" y1="244.4528" y2="348.2844"><stop offset="0.0746" stop-color="#c9d8e9"></stop><stop offset="1" stop-color="#e7eff7"></stop></linearGradient><linearGradient gradientUnits="userSpaceOnUse" id="SVGID_21_" node-id="103" spreadMethod="pad" x1="180.277" x2="180.277" y1="545.0913" y2="493.3585"><stop offset="0" stop-color="#4f5c7c"></stop><stop offset="1" stop-color="#274168"></stop></linearGradient><linearGradient gradientUnits="userSpaceOnUse" id="SVGID_22_" node-id="107" spreadMethod="pad" x1="203.0664" x2="203.0664" y1="596.1737" y2="519.4346"><stop offset="0" stop-color="#fad96e"></stop><stop offset="1" stop-color="#ffb32c"></stop></linearGradient><linearGradient gradientUnits="userSpaceOnUse" id="SVGID_23_" node-id="111" spreadMethod="pad" x1="204.1305" x2="204.1305" y1="506.3467" y2="530.6572"><stop offset="0" stop-color="#f4ae98"></stop><stop offset="1" stop-color="#fad1bb"></stop></linearGradient><linearGradient gradientTransform="matrix(0.9901 -0.1406 0.1406 0.9901 81.6013 310.9022)" gradientUnits="userSpaceOnUse" id="SVGID_24_" node-id="115" spreadMethod="pad" x1="54.099" x2="65.9812" y1="306.3686" y2="222.7048"><stop offset="0" stop-color="#fad96e"></stop><stop offset="1" stop-color="#ffa91f"></stop></linearGradient><linearGradient gradientTransform="matrix(-0.9901 -0.1406 -0.1406 0.9901 4635.561 310.9022)" gradientUnits="userSpaceOnUse" id="SVGID_25_" node-id="119" spreadMethod="pad" x1="4323.838" x2="4335.72" y1="912.772" y2="829.1083"><stop offset="0" stop-color="#fad96e"></stop><stop offset="1" stop-color="#ffa91f"></stop></linearGradient><linearGradient gradientUnits="userSpaceOnUse" id="SVGID_26_" node-id="123" spreadMethod="pad" x1="222.9562" x2="222.9562" y1="544.7305" y2="496.0822"><stop offset="0" stop-color="#4f5c7c"></stop><stop offset="1" stop-color="#274168"></stop></linearGradient><linearGradient gradientTransform="matrix(0.9995 0.0319 -0.0319 0.9995 -3.9306 -44.7255)" gradientUnits="userSpaceOnUse" id="SVGID_27_" node-id="127" spreadMethod="pad" x1="223.6065" x2="223.6065" y1="523.0963" y2="554.782"><stop offset="0" stop-color="#f4b9a4"></stop><stop offset="0.652" stop-color="#fad1bb"></stop></linearGradient><linearGradient gradientUnits="userSpaceOnUse" id="SVGID_28_" node-id="131" spreadMethod="pad" x1="201.1142" x2="201.1142" y1="506.1554" y2="476.8728"><stop offset="0" stop-color="#4f5c7c"></stop><stop offset="1" stop-color="#274168"></stop></linearGradient><linearGradient gradientUnits="userSpaceOnUse" id="SVGID_29_" node-id="135" spreadMethod="pad" x1="203.0664" x2="203.0664" y1="568.4601" y2="617.2266"><stop offset="0" stop-color="#275c89"></stop><stop offset="1" stop-color="#013f7c"></stop></linearGradient><linearGradient gradientUnits="userSpaceOnUse" id="SVGID_30_" node-id="141" spreadMethod="pad" x1="-4379.3906" x2="-4396.655" y1="638.273" y2="638.273"><stop offset="0" stop-color="#f4b9a4"></stop><stop offset="0.652" stop-color="#fad1bb"></stop></linearGradient><linearGradient gradientUnits="userSpaceOnUse" id="SVGID_31_" node-id="145" spreadMethod="pad" x1="179.6585" x2="268.7201" y1="619.2453" y2="619.2453"><stop offset="0" stop-color="#18264b"></stop><stop offset="0.652" stop-color="#2d3c65"></stop></linearGradient><linearGradient gradientUnits="userSpaceOnUse" id="SVGID_32_" node-id="149" spreadMethod="pad" x1="159.5774" x2="159.5774" y1="648.2119" y2="629.886"><stop offset="0" stop-color="#4673bc"></stop><stop offset="0.652" stop-color="#6a94e0"></stop></linearGradient><linearGradient gradientUnits="userSpaceOnUse" id="SVGID_33_" node-id="155" spreadMethod="pad" x1="222.6883" x2="239.9523" y1="638.273" y2="638.273"><stop offset="0" stop-color="#f4b9a4"></stop><stop offset="0.652" stop-color="#fad1bb"></stop></linearGradient><linearGradient gradientUnits="userSpaceOnUse" id="SVGID_34_" node-id="159" spreadMethod="pad" x1="140.6848" x2="229.7464" y1="619.2453" y2="619.2453"><stop offset="0" stop-color="#445677"></stop><stop offset="1" stop-color="#293861"></stop></linearGradient><linearGradient gradientUnits="userSpaceOnUse" id="SVGID_35_" node-id="163" spreadMethod="pad" x1="249.8275" x2="249.8275" y1="648.2119" y2="629.886"><stop offset="0" stop-color="#4673bc"></stop><stop offset="0.652" stop-color="#6a94e0"></stop></linearGradient></defs><g node-id="508"><g node-id="509"><path d="M 482.53 200.66 C 444.16 230.95 361.79 234.47 301.36 198.44 C 240.93 162.41 129.36 167.06 99.14 233.31 C 68.92 299.56 136.33 364.64 111.92 412.29 C 87.51 459.94 6.16 527.34 61.95 608.69 C 117.74 690.04 188.55 669.31 231.17 661.14 C 315.34 645.01 420.96 776.81 539.79 677.27 C 608.26 619.92 710.23 719.36 749.96 595.91 C 782.74 494.05 664.29 456.41 699.99 387.88 C 737.95 315.00 730.66 228.64 689.53 186.82 C 651.22 147.87 548.78 148.36 482.53 200.66 Z" fill="url(#SVGID_1_)" fill-rule="nonzero" group-id="1,2" node-id="397" stroke="none" target-height="628.94" target-width="776.58" target-x="6.16" target-y="147.87"></path><path d="M 396.12 580.29 C 404.07 576.89 528.78 478.79 528.78 478.79 L 677.20 478.79 L 566.20 581.72 L 396.12 580.29 Z" fill="url(#SVGID_2_)" fill-rule="nonzero" group-id="1,2" node-id="399" stroke="none" target-height="102.92996" target-width="281.08002" target-x="396.12" target-y="478.79"></path><g node-id="512"><path d="M 115.14 403.77 C 115.14 403.77 114.92 403.20 114.62 403.81 C 111.92 409.30 87.47 468.77 85.53 514.67 C 85.53 514.67 81.45 541.04 115.64 540.69 C 144.18 540.40 143.42 516.09 143.32 507.90 C 142.93 474.68 115.14 403.77 115.14 403.77 Z" fill="url(#SVGID_3_)" fill-rule="nonzero" group-id="1,2,5" node-id="403" stroke="none" target-height="137.83997" target-width="62.729996" target-x="81.45" target-y="403.2"></path><g node-id="520"><path d="M 114.36 569.89 C 113.81 569.89 113.36 569.44 113.36 568.89 L 113.36 419.76 C 113.36 419.21 113.81 418.76 114.36 418.76 C 114.91 418.76 115.36 419.21 115.36 419.76 L 115.36 568.89 C 115.36 569.44 114.91 569.89 114.36 569.89 Z" fill="url(#SVGID_4_)" fill-rule="nonzero" group-id="1,2,5,13" node-id="407" stroke="none" target-height="151.13" target-width="2" target-x="113.36" target-y="418.76"></path></g></g><g node-id="513"><path d="M 615.99 361.01 C 615.99 361.01 615.85 360.64 615.66 361.04 C 613.92 364.57 598.18 402.87 596.93 432.42 C 596.93 432.42 594.30 449.40 616.32 449.18 C 634.70 449.00 634.21 433.34 634.14 428.07 C 633.89 406.67 615.99 361.01 615.99 361.01 Z" fill="url(#SVGID_5_)" fill-rule="nonzero" group-id="1,2,6" node-id="413" stroke="none" target-height="88.75998" target-width="40.400024" target-x="594.3" target-y="360.64"></path><g node-id="521"><path d="M 615.49 467.97 C 615.13 467.97 614.85 467.68 614.85 467.33 L 614.85 371.30 C 614.85 370.94 615.14 370.66 615.49 370.66 C 615.84 370.66 616.13 370.95 616.13 371.30 L 616.13 467.32 C 616.13 467.68 615.84 467.97 615.49 467.97 Z" fill="url(#SVGID_6_)" fill-rule="nonzero" group-id="1,2,6,14" node-id="417" stroke="none" target-height="97.31" target-width="1.2800293" target-x="614.85" target-y="370.66"></path></g></g><g node-id="514"><path d="M 689.36 527.56 C 689.36 537.04 681.67 544.73 672.19 544.73 C 662.71 544.73 655.02 537.04 655.02 527.56 C 655.02 518.08 662.71 510.39 672.19 510.39 C 681.67 510.39 689.36 518.08 689.36 527.56 Z" fill="url(#SVGID_7_)" fill-rule="nonzero" group-id="1,2,7" node-id="423" stroke="none" target-height="34.339966" target-width="34.339966" target-x="655.02" target-y="510.39"></path><path d="M 672.25 569.99 C 671.96 569.99 671.72 569.75 671.72 569.46 L 671.72 515.25 C 671.72 514.96 671.96 514.72 672.25 514.72 C 672.54 514.72 672.78 514.96 672.78 515.25 L 672.78 569.46 C 672.78 569.75 672.55 569.99 672.25 569.99 Z" fill="url(#SVGID_8_)" fill-rule="nonzero" group-id="1,2,7" node-id="425" stroke="none" target-height="55.27002" target-width="1.0600586" target-x="671.72" target-y="514.72"></path></g><path d="M 478.77 116.67 C 478.77 135.86 463.21 151.42 444.02 151.42 C 424.83 151.42 409.27 135.86 409.27 116.67 C 409.27 97.48 424.83 81.92 444.02 81.92 C 463.21 81.92 478.77 97.48 478.77 116.67 Z" fill="url(#SVGID_9_)" fill-rule="nonzero" group-id="1,2" node-id="428" stroke="none" target-height="69.5" target-width="69.5" target-x="409.27" target-y="81.92"></path><path d="M 463.80 135.62 L 429.23 135.62 C 427.00 125.01 417.58 117.04 406.30 117.04 C 395.02 117.04 385.61 125.01 383.37 135.62 L 374.32 135.62 C 363.59 135.62 354.88 144.32 354.88 155.06 L 354.88 155.06 C 354.88 165.79 363.58 174.50 374.32 174.50 L 463.79 174.50 C 474.52 174.50 483.23 165.80 483.23 155.06 L 483.23 155.06 C 483.24 144.32 474.54 135.62 463.80 135.62 Z" fill="url(#SVGID_10_)" fill-rule="nonzero" group-id="1,2" node-id="430" stroke="none" target-height="57.46" target-width="128.35999" target-x="354.88" target-y="117.04"></path></g><g node-id="510"><path d="M 445.53 489.09 L 398.90 580.22 L 545.96 580.22 L 495.06 476.52 Z" fill="url(#SVGID_11_)" fill-rule="nonzero" group-id="1,3" node-id="435" stroke="none" target-height="103.69998" target-width="147.06003" target-x="398.9" target-y="476.52"></path><path d="M 502.35 470.24 C 502.35 490.02 486.31 506.06 466.53 506.06 C 446.75 506.06 430.71 490.02 430.71 470.24 C 430.71 450.46 446.75 434.42 466.53 434.42 C 486.31 434.42 502.35 450.46 502.35 470.24 Z" fill="url(#SVGID_12_)" fill-rule="nonzero" group-id="1,3" node-id="437" stroke="none" target-height="71.639984" target-width="71.640015" target-x="430.71" target-y="434.42"></path><path d="M 245.81 481.07 L 450.06 252.54 C 450.06 252.54 548.85 345.68 473.82 456.16 C 409.18 551.32 265.92 503.71 245.81 481.07 Z" fill="url(#SVGID_13_)" fill-rule="nonzero" group-id="1,3" node-id="439" stroke="none" target-height="298.78003" target-width="303.03998" target-x="245.81" target-y="252.54"></path><path d="M 556.79 593.42 L 387.82 593.42 C 382.62 593.42 378.41 589.21 378.41 584.01 L 378.41 581.71 C 378.41 576.51 382.62 572.30 387.82 572.30 L 556.79 572.30 C 561.99 572.30 566.20 576.51 566.20 581.71 L 566.20 584.01 C 566.20 589.21 561.99 593.42 556.79 593.42 Z" fill="url(#SVGID_14_)" fill-rule="nonzero" group-id="1,3" node-id="441" stroke="none" target-height="21.119995" target-width="187.79001" target-x="378.41" target-y="572.3"></path><path d="M 453.42 255.33 C 430.35 234.11 365.17 267.44 307.84 329.77 C 250.51 392.10 222.74 459.84 245.81 481.06 C 268.88 502.28 334.06 468.95 391.39 406.62 C 448.72 344.29 476.49 276.55 453.42 255.33 Z" fill="url(#SVGID_15_)" fill-rule="nonzero" group-id="1,3" node-id="443" stroke="none" target-height="268.16998" target-width="253.74998" target-x="222.74" target-y="234.11"></path><path d="M 444.71 264.80 C 427.39 248.87 370.78 282.26 318.26 339.37 C 265.74 396.48 237.20 455.68 254.52 471.60 C 271.84 487.53 328.45 454.14 380.97 397.03 C 433.49 339.92 462.03 280.73 444.71 264.80 Z" fill="url(#SVGID_16_)" fill-rule="nonzero" group-id="1,3" node-id="445" stroke="none" target-height="238.66" target-width="224.83" target-x="237.2" target-y="248.87"></path><path d="M 394.50 381.65 L 328.13 332.85 L 309.90 351.08 C 309.90 351.08 346.83 392.57 364.68 413.86 C 370.12 408.52 375.56 402.90 380.96 397.03 C 385.68 391.91 390.19 386.78 394.50 381.65 Z" fill="url(#SVGID_17_)" fill-rule="nonzero" group-id="1,3" node-id="447" stroke="none" target-height="81.00998" target-width="84.600006" target-x="309.9" target-y="332.85"></path><path d="M 333.33 335.84 C 333.33 347.50 323.87 356.96 312.21 356.96 C 300.55 356.96 291.09 347.50 291.09 335.84 C 291.09 324.18 300.55 314.72 312.21 314.72 C 323.87 314.72 333.33 324.18 333.33 335.84 Z" fill="#d7e3f3" fill-rule="nonzero" group-id="1,3" node-id="449" stroke="none" target-height="42.23999" target-width="42.23999" target-x="291.09" target-y="314.72"></path><g node-id="515"><path d="M 272.45 335.64 C 269.69 335.64 267.08 333.95 266.06 331.21 C 264.88 328.07 264.28 324.77 264.28 321.39 C 264.28 305.98 276.82 293.44 292.23 293.44 C 296.00 293.44 299.06 296.50 299.06 300.27 C 299.06 304.04 296.00 307.10 292.23 307.10 C 284.35 307.10 277.94 313.51 277.94 321.39 C 277.94 323.12 278.24 324.81 278.84 326.41 C 280.17 329.94 278.38 333.88 274.85 335.20 C 274.05 335.50 273.24 335.64 272.45 335.64 Z" fill="url(#SVGID_18_)" fill-rule="nonzero" group-id="1,3,8" node-id="453" stroke="none" target-height="42.200012" target-width="34.78" target-x="264.28" target-y="293.44"></path></g><g node-id="516"><path d="M 250.43 340.65 C 247.49 340.65 244.77 338.73 243.89 335.76 C 242.51 331.11 241.81 326.27 241.81 321.38 C 241.81 293.58 264.43 270.97 292.22 270.97 C 295.99 270.97 299.05 274.03 299.05 277.80 C 299.05 281.57 295.99 284.63 292.22 284.63 C 271.95 284.63 255.47 301.12 255.47 321.38 C 255.47 324.95 255.98 328.48 256.99 331.87 C 258.06 335.49 256.00 339.29 252.39 340.36 C 251.73 340.56 251.08 340.65 250.43 340.65 Z" fill="url(#SVGID_19_)" fill-rule="nonzero" group-id="1,3,9" node-id="458" stroke="none" target-height="69.67999" target-width="57.23999" target-x="241.81" target-y="270.97"></path></g><path d="M 225.03 348.28 C 222.09 348.28 219.37 346.36 218.49 343.40 C 216.37 336.28 215.29 328.87 215.29 321.38 C 215.29 278.96 249.80 244.45 292.22 244.45 C 295.99 244.45 299.05 247.51 299.05 251.28 C 299.05 255.05 295.99 258.11 292.22 258.11 C 257.33 258.11 228.94 286.50 228.94 321.39 C 228.94 327.56 229.82 333.65 231.57 339.50 C 232.65 343.11 230.59 346.92 226.98 348.00 C 226.33 348.19 225.67 348.28 225.03 348.28 Z" fill="url(#SVGID_20_)" fill-rule="nonzero" group-id="1,3,10" node-id="463" stroke="none" target-height="103.83" target-width="83.759995" target-x="215.29" target-y="244.45"></path></g><g node-id="511"><path d="M 184.05 496.96 C 184.05 496.96 172.84 499.66 170.67 509.37 C 166.15 510.47 150.90 518.68 162.41 536.79 C 168.21 543.89 169.10 545.10 169.10 545.10 L 202.34 535.29 L 202.34 493.36 L 184.05 496.96 Z" fill="url(#SVGID_21_)" fill-rule="nonzero" group-id="1,4" node-id="469" stroke="none" target-height="51.73999" target-width="51.440002" target-x="150.9" target-y="493.36"></path><path d="M 195.15 519.80 C 195.15 519.80 176.53 517.23 170.48 525.78 C 164.43 534.34 162.22 556.24 162.22 556.24 L 176.23 555.50 L 175.05 581.02 L 200.91 596.18 L 237.75 576.37 L 232.14 553.26 L 243.91 550.19 C 243.91 550.19 240.40 516.64 224.03 521.59 C 215.62 522.49 212.97 522.34 212.97 522.34 C 212.97 522.34 210.76 529.39 203.16 528.79 C 195.56 528.18 195.15 519.80 195.15 519.80 Z" fill="url(#SVGID_22_)" fill-rule="nonzero" group-id="1,4" node-id="471" stroke="none" target-height="79.53998" target-width="81.69" target-x="162.22" target-y="516.64"></path><path d="M 197.01 509.25 L 193.14 526.51 C 192.96 527.32 193.38 528.15 194.15 528.46 C 196.15 529.27 200.15 530.66 204.27 530.66 C 208.54 530.66 212.57 528.32 214.42 527.07 C 215.06 526.64 215.33 525.84 215.08 525.11 L 209.16 507.51 C 208.89 506.71 208.08 506.23 207.24 506.37 L 198.37 507.94 C 197.70 508.06 197.16 508.58 197.01 509.25 Z" fill="url(#SVGID_23_)" fill-rule="nonzero" group-id="1,4" node-id="473" stroke="none" target-height="24.429962" target-width="22.369995" target-x="192.96" target-y="506.23"></path><path d="M 173.89 522.78 C 179.31 520.98 186.66 522.18 186.96 534.34 C 187.26 546.49 175.35 565.87 179.61 572.61 C 183.93 579.44 193.18 589.14 199.06 594.66 C 197.69 601.15 194.00 606.61 194.00 606.61 C 194.00 606.61 172.33 596.61 162.89 586.59 C 153.45 576.57 158.21 553.61 162.59 537.26 C 165.88 524.96 173.89 522.78 173.89 522.78 Z" fill="url(#SVGID_24_)" fill-rule="nonzero" group-id="1,4" node-id="475" stroke="none" target-height="85.630005" target-width="45.61" target-x="153.45" target-y="520.98"></path><path d="M 230.69 522.78 C 225.27 520.98 217.92 522.18 217.62 534.34 C 217.32 546.49 229.23 565.87 224.97 572.61 C 220.65 579.44 211.40 589.14 205.52 594.66 C 206.89 601.15 210.58 606.61 210.58 606.61 C 210.58 606.61 232.25 596.61 241.69 586.59 C 251.13 576.57 246.37 553.61 241.99 537.26 C 238.70 524.96 230.69 522.78 230.69 522.78 Z" fill="url(#SVGID_25_)" fill-rule="nonzero" group-id="1,4" node-id="477" stroke="none" target-height="85.630005" target-width="45.61" target-x="205.52" target-y="520.98"></path><path d="M 206.97 506.37 C 206.97 506.37 210.90 518.28 209.92 524.88 C 208.94 531.48 210.31 540.99 218.67 543.89 C 227.03 546.79 235.00 541.89 237.85 533.58 C 240.70 525.27 237.95 519.27 230.97 513.87 C 232.15 508.77 226.41 499.50 216.18 496.20 C 206.14 494.80 206.97 506.37 206.97 506.37 Z" fill="url(#SVGID_26_)" fill-rule="nonzero" group-id="1,4" node-id="479" stroke="none" target-height="51.98999" target-width="34.559998" target-x="206.14" target-y="494.8"></path><path d="M 191.82 491.05 C 191.82 491.05 185.43 495.55 185.57 501.94 C 185.71 508.33 190.83 507.13 190.83 507.13 C 190.83 507.13 192.38 516.59 202.47 516.92 C 212.56 517.25 213.97 507.15 213.97 507.15 C 213.97 507.15 219.03 507.79 219.15 501.97 C 219.27 496.15 214.85 488.35 210.45 486.13 C 206.05 483.93 195.26 486.62 191.82 491.05 Z" fill="url(#SVGID_27_)" fill-rule="nonzero" group-id="1,4" node-id="481" stroke="none" target-height="33.320007" target-width="33.84001" target-x="185.43" target-y="483.93"></path><path d="M 198.31 489.06 C 198.31 489.06 196.29 494.86 191.23 495.86 C 186.17 496.86 185.71 499.44 185.71 501.87 C 185.71 503.65 186.31 505.35 186.73 506.16 C 184.00 504.66 180.27 501.07 182.64 491.19 C 184.93 481.64 192.01 477.00 201.52 477.15 C 209.49 475.05 221.29 485.72 220.25 499.60 C 218.55 497.35 216.98 496.82 215.80 496.42 C 214.62 496.02 212.16 493.57 211.87 491.12 C 209.82 491.56 202.59 492.56 198.31 489.06 Z" fill="url(#SVGID_28_)" fill-rule="nonzero" group-id="1,4" node-id="483" stroke="none" target-height="31.110016" target-width="41.01999" target-x="180.27" target-y="475.05"></path><path d="M 176.52 617.23 L 229.14 617.23 C 231.52 617.23 233.65 615.42 234.48 612.70 L 245.09 577.80 C 246.47 573.27 243.72 568.46 239.75 568.46 L 166.39 568.46 C 162.46 568.46 159.71 573.19 161.02 577.71 L 171.15 612.61 C 171.96 615.37 174.11 617.23 176.52 617.23 Z" fill="url(#SVGID_29_)" fill-rule="nonzero" group-id="1,4" node-id="485" stroke="none" target-height="48.76996" target-width="86.759995" target-x="159.71" target-y="568.46"></path><g node-id="518"><path d="M 174.42 633.27 C 174.42 633.27 173.61 631.48 172.98 631.29 C 172.35 631.10 163.35 630.74 160.07 629.89 C 156.79 629.04 147.32 627.69 143.27 631.53 C 139.74 634.87 138.57 642.69 143.95 647.18 C 145.97 648.93 147.95 649.45 155.43 649.10 C 162.90 648.75 173.74 648.83 176.11 645.36 C 176.03 639.64 174.42 633.27 174.42 633.27 Z" fill="#ffffff" fill-rule="nonzero" group-id="1,4,11" node-id="489" stroke="none" target-height="21.76001" target-width="37.539993" target-x="138.57" target-y="627.69"></path><path d="M 182.77 631.29 C 182.77 631.29 174.08 633.24 170.98 632.95 C 167.88 632.66 170.47 645.18 170.47 645.18 C 170.47 645.18 178.76 645.75 186.10 643.63 C 188.58 634.05 182.77 631.29 182.77 631.29 Z" fill="url(#SVGID_30_)" fill-rule="nonzero" group-id="1,4,11" node-id="491" stroke="none" target-height="14.460022" target-width="20.699997" target-x="167.88" target-y="631.29"></path><path d="M 179.66 630.84 L 184.18 644.88 C 184.18 644.88 281.24 632.10 267.37 600.60 C 255.76 574.27 179.66 630.84 179.66 630.84 Z" fill="url(#SVGID_31_)" fill-rule="nonzero" group-id="1,4,11" node-id="493" stroke="none" target-height="70.609985" target-width="101.57999" target-x="179.66" target-y="574.27"></path><path d="M 173.29 631.92 C 173.29 631.92 176.84 633.31 177.30 638.27 C 177.75 643.23 176.28 646.56 168.72 647.48 C 161.16 648.40 159.24 648.05 154.50 648.17 C 149.76 648.28 142.88 648.74 141.86 639.73 C 140.84 630.72 150.06 628.42 159.62 630.72 C 162.63 631.29 173.29 631.92 173.29 631.92 Z" fill="url(#SVGID_32_)" fill-rule="nonzero" group-id="1,4,11" node-id="495" stroke="none" target-height="20.320007" target-width="36.910004" target-x="140.84" target-y="628.42"></path></g><g node-id="519"><path d="M 234.98 633.27 C 234.98 633.27 235.79 631.48 236.42 631.29 C 237.05 631.10 246.05 630.74 249.33 629.89 C 252.61 629.04 261.43 627.62 265.89 631.42 C 270.02 634.95 270.29 642.75 265.59 647.05 C 263.57 648.80 261.45 649.44 253.98 649.09 C 246.51 648.74 235.67 648.82 233.30 645.35 C 233.37 639.64 234.98 633.27 234.98 633.27 Z" fill="#ffffff" fill-rule="nonzero" group-id="1,4,12" node-id="500" stroke="none" target-height="21.820007" target-width="36.990005" target-x="233.3" target-y="627.62"></path><path d="M 226.63 631.29 C 226.63 631.29 235.32 633.24 238.42 632.95 C 241.52 632.66 238.93 645.18 238.93 645.18 C 238.93 645.18 230.64 645.75 223.30 643.63 C 220.82 634.05 226.63 631.29 226.63 631.29 Z" fill="url(#SVGID_33_)" fill-rule="nonzero" group-id="1,4,12" node-id="502" stroke="none" target-height="14.460022" target-width="20.699997" target-x="220.82" target-y="631.29"></path><path d="M 229.75 630.84 L 225.23 644.88 C 225.23 644.88 128.17 632.10 142.04 600.60 C 153.64 574.27 229.75 630.84 229.75 630.84 Z" fill="url(#SVGID_34_)" fill-rule="nonzero" group-id="1,4,12" node-id="504" stroke="none" target-height="70.609985" target-width="101.58" target-x="128.17" target-y="574.27"></path><path d="M 236.11 631.92 C 236.11 631.92 232.56 633.31 232.10 638.27 C 231.65 643.23 233.12 646.56 240.68 647.48 C 248.24 648.40 250.16 648.05 254.90 648.17 C 259.64 648.29 266.52 648.74 267.54 639.73 C 268.56 630.72 259.34 628.42 249.78 630.72 C 246.78 631.29 236.11 631.92 236.11 631.92 Z" fill="url(#SVGID_35_)" fill-rule="nonzero" group-id="1,4,12" node-id="506" stroke="none" target-height="20.320007" target-width="36.910004" target-x="231.65" target-y="628.42"></path></g></g></g></svg>